<?xml version="1.0"?>
<svg width="842" height="840" xmlns="http://www.w3.org/2000/svg" xmlns:svg="http://www.w3.org/2000/svg">
 <g>
  <title>Fill</title>
  <path id="fill" fill="#777777" d="m50.833515,316.631744l566.569439,-282.010628c0,0 187.15448,94.159431 189.473572,91.840279c2.319214,-2.319153 13.914917,384.978882 12.29248,383.585571c-1.622437,-1.393433 -585.122604,293.606293 -586.745056,292.212921c-1.622452,-1.393372 -207.101089,-102.968384 -208.723532,-104.361755c-1.622442,-1.393433 27.133097,-381.266449 27.133097,-381.266449l0,0.000061z" />
 </g>
 <g>
  <title>Outline</title>
  <path  id="Outline" fill="#ffffff" d="m827.860657,100.009674l-198.010254,-99.005088c-6.969788,-3.494881 -15.16748,-3.494881 -22.137329,0l-594.030585,297.01525c-8.385714,4.197815 -13.682488,12.76178 -13.682488,22.137543l0,396.020355c0,9.375793 5.296775,17.949707 13.682488,22.137573l198.010184,99.005066c3.485001,1.742493 7.276886,2.613708 11.068787,2.613708s7.583786,-0.871216 11.068771,-2.613708l594.030487,-297.015259c8.385803,-4.187988 13.682495,-12.761841 13.682495,-22.137573l0,-396.020325c0,-9.375793 -5.296692,-17.939728 -13.682495,-22.137543l-0.000061,0zm-35.820068,218.692322l-61.878174,30.939087l0,-71.33316l61.878174,-30.939072l0,71.333145zm-742.538124,126.667114l160.883263,80.44162l0,71.33313l-160.883263,-80.431702l0,-71.343048zm185.634544,151.77475l0,-71.33313l74.253799,-37.126892l0,71.33313l-74.253799,37.126892zm180.100174,-90.045105l-81.095093,40.542603l0,-71.33316l173.258911,-86.629456l0,71.333191l-92.163818,46.086823zm198.010193,-99.005035l-81.095093,40.542572l0,-71.333191l173.258911,-86.629425l0,71.33316l-92.163818,46.086884zm99.005005,-148.507629l-81.095032,40.542572l0,-71.333176l160.88324,-80.441635l0,71.333176l-79.788208,39.899063zm-105.846313,-18.40509l0,71.333191l-92.163818,46.086853l-81.095062,40.542603l0,-71.333191l173.258881,-86.629456zm-198.010162,99.005066l0,71.333191l-92.163818,46.086884l-81.095078,40.542603l0,-71.333191l173.258896,-86.629486zm-198.010178,86.629486l0,71.333191l-74.253815,-37.126923l0,-71.333191l74.253815,37.126923zm-99.005074,21.82074l-61.878189,-30.939087l0,-71.333191l61.878189,30.939087l0,71.333191zm-61.878189,167.071045l0,-71.33313l61.878189,30.939148l0,71.333069l-61.878189,-30.939148l0,0.000061zm86.629448,-28.008423l74.253815,37.126892l0,71.33313l-74.253815,-37.126953l0,-71.333069zm180.100174,67.907654l-81.095078,40.54248l0,-71.33313l173.258896,-86.629456l0,71.333191l-92.163818,46.086975l0,-0.000061zm198.010162,-99.005127l-81.095062,40.542603l0,-71.333191l173.258881,-86.629456l0,71.33313l-92.163818,46.086914zm116.9151,-58.462524l0,-71.33313l92.144043,-46.076996c0.009888,0 0.009888,0 0.019775,-0.009918l68.719421,-34.354736l0,71.33313l-79.788208,39.899078l-81.095032,40.542572zm-12.37561,-447.324783l156.507202,78.253632l-552.527557,276.263779l-156.507248,-78.253632l552.527603,-276.263779zm-569.279274,650.067459l0,-57.502197l160.883263,80.44165l0,57.502197l-160.883263,-80.44165zm185.634544,80.44165l0,-57.502197l74.253799,-37.126831l0,57.502075l-74.253799,37.126953zm99.005081,-49.502563l0,-57.502136l173.258911,-86.629517l0,57.502197l-173.258911,86.629456zm198.010193,-99.005127l0,-57.502136l173.258911,-86.629425l0,57.502106l-173.258911,86.629456zm198.010132,-156.507202l61.878174,-30.939087l0,57.502136l-61.878174,30.939087l0,-57.502136z"/>
 </g>
</svg>
